<?xml version="1.0" encoding="UTF-8" standalone="no"?>
<svg
   height="420mm"
   viewBox="0 0 5940 4200"
   width="594mm"
   version="1.2"
   id="svg306"
   sodipodi:docname="MSE6_Base_découpe2.svg"
   inkscape:version="1.2.2 (732a01da63, 2022-12-09)"
   xmlns:inkscape="http://www.inkscape.org/namespaces/inkscape"
   xmlns:sodipodi="http://sodipodi.sourceforge.net/DTD/sodipodi-0.dtd"
   xmlns="http://www.w3.org/2000/svg"
   xmlns:svg="http://www.w3.org/2000/svg"
   xmlns:rdf="http://www.w3.org/1999/02/22-rdf-syntax-ns#"
   xmlns:cc="http://creativecommons.org/ns#"
   xmlns:dc="http://purl.org/dc/elements/1.1/">
  <sodipodi:namedview
     id="namedview308"
     pagecolor="#ffffff"
     bordercolor="#000000"
     borderopacity="0.25"
     inkscape:showpageshadow="2"
     inkscape:pageopacity="0.0"
     inkscape:pagecheckerboard="0"
     inkscape:deskcolor="#d1d1d1"
     inkscape:document-units="mm"
     showgrid="false"
     inkscape:zoom="0.70710678"
     inkscape:cx="867.62002"
     inkscape:cy="828.02204"
     inkscape:window-width="1920"
     inkscape:window-height="991"
     inkscape:window-x="-9"
     inkscape:window-y="-9"
     inkscape:window-maximized="1"
     inkscape:current-layer="Page001" />
  <title
     id="title2">FreeCAD SVG Export</title>
  <desc
     id="desc4">Drawing page: Page001 exported from FreeCAD document: robot_v0_2</desc>
  <defs
     id="defs6" />
  <g
     inkscape:groupmode="layer"
     id="Page001"
     inkscape:label="TechDraw"
     style="fill:#00ffff;stroke:#ff0000">
    <g
       stroke="black"
       fill-rule="evenodd"
       fill="none"
       id="DrawingContent"
       stroke-width="1"
       stroke-linejoin="bevel"
       stroke-linecap="square"
       style="fill:#00ffff;stroke:#ff0000;stroke-width:0.10000001;stroke-dasharray:none">
      <g
         stroke="none"
         font-family="MS Shell Dlg 2"
         fill-opacity="1"
         fill="#ffffff"
         transform="matrix(1,0,0,1,2970,2100)"
         font-size="34.3958"
         font-style="normal"
         font-weight="400"
         id="g10"
         style="fill:#00ffff;stroke:#ff0000;stroke-width:0.10000001;stroke-dasharray:none">
        <path
           fill-rule="evenodd"
           vector-effect="non-scaling-stroke"
           d="M1809,-1016 L2159,-1016 L2159,1016 L1809,1016 L1809,726 L1059,726 L1059,1016 L-2159,1016 L-2159,-1016 L1059,-1016 L1059,-726 L1809,-726 L1809,-1016"
           id="path8"
           style="fill:#00ffff;stroke:#ff0000;stroke-width:0.10000001;stroke-dasharray:none" />
      </g>
      <g
         stroke="none"
         font-family="MS Shell Dlg 2"
         fill-opacity="1"
         fill="#ffffff"
         transform="matrix(1,0,0,1,2970,2100)"
         font-size="34.3958"
         font-style="normal"
         font-weight="400"
         id="g18"
         style="fill:#00ffff;stroke:#000080;stroke-width:0.10000001;stroke-dasharray:none">
        <path
           fill-rule="evenodd"
           vector-effect="non-scaling-stroke"
           d="M1220,596 C1220,610.359 1208.36,622 1194,622 C1179.64,622 1168,610.359 1168,596 C1168,581.641 1179.64,570 1194,570 C1208.36,570 1220,581.641 1220,596 "
           id="path16"
           style="fill:#00ffff;stroke:#000080;stroke-width:0.10000001;stroke-dasharray:none" />
      </g>
      <g
         stroke="none"
         font-family="MS Shell Dlg 2"
         fill-opacity="1"
         fill="#ffffff"
         transform="matrix(1,0,0,1,2970,2100)"
         font-size="34.3958"
         font-style="normal"
         font-weight="400"
         id="g26"
         style="fill:#00ffff;stroke:#000080;stroke-width:0.10000001;stroke-dasharray:none">
        <path
           fill-rule="evenodd"
           vector-effect="non-scaling-stroke"
           d="M1220,-596 C1220,-581.641 1208.36,-570 1194,-570 C1179.64,-570 1168,-581.641 1168,-596 C1168,-610.359 1179.64,-622 1194,-622 C1208.36,-622 1220,-610.359 1220,-596 "
           id="path24"
           style="fill:#00ffff;stroke:#000080;stroke-width:0.10000001;stroke-dasharray:none" />
      </g>
      <g
         stroke="none"
         font-family="MS Shell Dlg 2"
         fill-opacity="1"
         fill="#ffffff"
         transform="matrix(1,0,0,1,2970,2100)"
         font-size="34.3958"
         font-style="normal"
         font-weight="400"
         id="g34"
         style="fill:#00ffff;stroke:#000080;stroke-width:0.10000001;stroke-dasharray:none">
        <path
           fill-rule="evenodd"
           vector-effect="non-scaling-stroke"
           d="M1700,596 C1700,610.359 1688.36,622 1674,622 C1659.64,622 1648,610.359 1648,596 C1648,581.641 1659.64,570 1674,570 C1688.36,570 1700,581.641 1700,596 "
           id="path32"
           style="fill:#00ffff;stroke:#000080;stroke-width:0.10000001;stroke-dasharray:none" />
      </g>
      <g
         stroke="none"
         font-family="MS Shell Dlg 2"
         fill-opacity="1"
         fill="#ffffff"
         transform="matrix(1,0,0,1,2970,2100)"
         font-size="34.3958"
         font-style="normal"
         font-weight="400"
         id="g42"
         style="fill:#00ffff;stroke:#000080;stroke-width:0.10000001;stroke-dasharray:none">
        <path
           fill-rule="evenodd"
           vector-effect="non-scaling-stroke"
           d="M1700,-596 C1700,-581.641 1688.36,-570 1674,-570 C1659.64,-570 1648,-581.641 1648,-596 C1648,-610.359 1659.64,-622 1674,-622 C1688.36,-622 1700,-610.359 1700,-596 "
           id="path40"
           style="fill:#00ffff;stroke:#000080;stroke-width:0.10000001;stroke-dasharray:none" />
      </g>
      <g
         stroke="none"
         font-family="MS Shell Dlg 2"
         fill-opacity="1"
         fill="#ffffff"
         transform="matrix(1,0,0,1,2970,2100)"
         font-size="34.3958"
         font-style="normal"
         font-weight="400"
         id="g50"
         style="fill:#00ffff;stroke:#000080;stroke-width:0.10000001;stroke-dasharray:none">
        <path
           fill-rule="evenodd"
           vector-effect="non-scaling-stroke"
           d="M-1708,886 C-1708,900.359 -1719.64,912 -1734,912 C-1748.36,912 -1760,900.359 -1760,886 C-1760,871.641 -1748.36,860 -1734,860 C-1719.64,860 -1708,871.641 -1708,886 "
           id="path48"
           style="fill:#00ffff;stroke:#000080;stroke-width:0.10000001;stroke-dasharray:none" />
      </g>
      <g
         stroke="none"
         font-family="MS Shell Dlg 2"
         fill-opacity="1"
         fill="#ffffff"
         transform="matrix(1,0,0,1,2970,2100)"
         font-size="34.3958"
         font-style="normal"
         font-weight="400"
         id="g58"
         style="fill:#00ffff;stroke:#000080;stroke-width:0.10000001;stroke-dasharray:none">
        <path
           fill-rule="evenodd"
           vector-effect="non-scaling-stroke"
           d="M-1708,-886 C-1708,-871.641 -1719.64,-860 -1734,-860 C-1748.36,-860 -1760,-871.641 -1760,-886 C-1760,-900.359 -1748.36,-912 -1734,-912 C-1719.64,-912 -1708,-900.359 -1708,-886 "
           id="path56"
           style="fill:#00ffff;stroke:#000080;stroke-width:0.10000001;stroke-dasharray:none" />
      </g>
      <g
         stroke="none"
         font-family="MS Shell Dlg 2"
         fill-opacity="1"
         fill="#ffffff"
         transform="matrix(1,0,0,1,2970,2100)"
         font-size="34.3958"
         font-style="normal"
         font-weight="400"
         id="g66"
         style="fill:#00ffff;stroke:#000080;stroke-width:0.10000001;stroke-dasharray:none">
        <path
           fill-rule="evenodd"
           vector-effect="non-scaling-stroke"
           d="M-1468,886 C-1468,900.359 -1479.64,912 -1494,912 C-1508.36,912 -1520,900.359 -1520,886 C-1520,871.641 -1508.36,860 -1494,860 C-1479.64,860 -1468,871.641 -1468,886 "
           id="path64"
           style="fill:#00ffff;stroke:#000080;stroke-width:0.10000001;stroke-dasharray:none" />
      </g>
      <g
         stroke="none"
         font-family="MS Shell Dlg 2"
         fill-opacity="1"
         fill="#ffffff"
         transform="matrix(1,0,0,1,2970,2100)"
         font-size="34.3958"
         font-style="normal"
         font-weight="400"
         id="g74"
         style="fill:#00ffff;stroke:#000080;stroke-width:0.10000001;stroke-dasharray:none">
        <path
           fill-rule="evenodd"
           vector-effect="non-scaling-stroke"
           d="M-1468,-886 C-1468,-871.641 -1479.64,-860 -1494,-860 C-1508.36,-860 -1520,-871.641 -1520,-886 C-1520,-900.359 -1508.36,-912 -1494,-912 C-1479.64,-912 -1468,-900.359 -1468,-886 "
           id="path72"
           style="fill:#00ffff;stroke:#000080;stroke-width:0.10000001;stroke-dasharray:none" />
      </g>
      <g
         stroke="none"
         font-family="MS Shell Dlg 2"
         fill-opacity="1"
         fill="#ffffff"
         transform="matrix(1,0,0,1,2970,2100)"
         font-size="34.3958"
         font-style="normal"
         font-weight="400"
         id="g82"
         style="fill:#00ffff;stroke:#000080;stroke-width:0.10000001;stroke-dasharray:none">
        <path
           fill-rule="evenodd"
           vector-effect="non-scaling-stroke"
           d="M1460,596 C1460,610.359 1448.36,622 1434,622 C1419.64,622 1408,610.359 1408,596 C1408,581.641 1419.64,570 1434,570 C1448.36,570 1460,581.641 1460,596 "
           id="path80"
           style="fill:#00ffff;stroke:#000080;stroke-width:0.10000001;stroke-dasharray:none" />
      </g>
      <g
         stroke="none"
         font-family="MS Shell Dlg 2"
         fill-opacity="1"
         fill="#ffffff"
         transform="matrix(1,0,0,1,2970,2100)"
         font-size="34.3958"
         font-style="normal"
         font-weight="400"
         id="g90"
         style="fill:#00ffff;stroke:#000080;stroke-width:0.10000001;stroke-dasharray:none">
        <path
           fill-rule="evenodd"
           vector-effect="non-scaling-stroke"
           d="M1460,-596 C1460,-581.641 1448.36,-570 1434,-570 C1419.64,-570 1408,-581.641 1408,-596 C1408,-610.359 1419.64,-622 1434,-622 C1448.36,-622 1460,-610.359 1460,-596 "
           id="path88"
           style="fill:#00ffff;stroke:#000080;stroke-width:0.10000001;stroke-dasharray:none" />
      </g>
      <g
         stroke="none"
         font-family="MS Shell Dlg 2"
         fill-opacity="1"
         fill="#ffffff"
         transform="matrix(1,0,0,1,2970,2100)"
         font-size="34.3958"
         font-style="normal"
         font-weight="400"
         id="g98"
         style="fill:#00ffff;stroke:#000080;stroke-width:0.10000001;stroke-dasharray:none">
        <path
           fill-rule="evenodd"
           vector-effect="non-scaling-stroke"
           d="M-1948,886 C-1948,900.359 -1959.64,912 -1974,912 C-1988.36,912 -2000,900.359 -2000,886 C-2000,871.641 -1988.36,860 -1974,860 C-1959.64,860 -1948,871.641 -1948,886 "
           id="path96"
           style="fill:#00ffff;stroke:#000080;stroke-width:0.10000001;stroke-dasharray:none" />
      </g>
      <g
         stroke="none"
         font-family="MS Shell Dlg 2"
         fill-opacity="1"
         fill="#ffffff"
         transform="matrix(1,0,0,1,2970,2100)"
         font-size="34.3958"
         font-style="normal"
         font-weight="400"
         id="g106"
         style="fill:#00ffff;stroke:#000080;stroke-width:0.10000001;stroke-dasharray:none">
        <path
           fill-rule="evenodd"
           vector-effect="non-scaling-stroke"
           d="M-1948,-886 C-1948,-871.641 -1959.64,-860 -1974,-860 C-1988.36,-860 -2000,-871.641 -2000,-886 C-2000,-900.359 -1988.36,-912 -1974,-912 C-1959.64,-912 -1948,-900.359 -1948,-886 "
           id="path104"
           style="fill:#00ffff;stroke:#000080;stroke-width:0.10000001;stroke-dasharray:none" />
      </g>
      <g
         stroke="none"
         font-family="MS Shell Dlg 2"
         fill-opacity="1"
         fill="#ffffff"
         transform="matrix(1,0,0,1,2970,2100)"
         font-size="34.3958"
         font-style="normal"
         font-weight="400"
         id="g114"
         style="fill:#00ffff;stroke:#000080;stroke-width:0.10000001;stroke-dasharray:none">
        <path
           fill-rule="evenodd"
           vector-effect="non-scaling-stroke"
           d="M-1906.5,185 C-1906.5,193.284 -1913.22,200 -1921.5,200 C-1929.78,200 -1936.5,193.284 -1936.5,185 C-1936.5,176.716 -1929.78,170 -1921.5,170 C-1913.22,170 -1906.5,176.716 -1906.5,185 "
           id="path112"
           style="fill:#00ffff;stroke:#000080;stroke-width:0.10000001;stroke-dasharray:none" />
      </g>
      <g
         stroke="none"
         font-family="MS Shell Dlg 2"
         fill-opacity="1"
         fill="#ffffff"
         transform="matrix(1,0,0,1,2970,2100)"
         font-size="34.3958"
         font-style="normal"
         font-weight="400"
         id="g122"
         style="fill:#00ffff;stroke:#000080;stroke-width:0.10000001;stroke-dasharray:none">
        <path
           fill-rule="evenodd"
           vector-effect="non-scaling-stroke"
           d="M-1906.5,-185 C-1906.5,-176.716 -1913.22,-170 -1921.5,-170 C-1929.78,-170 -1936.5,-176.716 -1936.5,-185 C-1936.5,-193.284 -1929.78,-200 -1921.5,-200 C-1913.22,-200 -1906.5,-193.284 -1906.5,-185 "
           id="path120"
           style="fill:#00ffff;stroke:#000080;stroke-width:0.10000001;stroke-dasharray:none" />
      </g>
      <g
         stroke="none"
         font-family="MS Shell Dlg 2"
         fill-opacity="1"
         fill="#ffffff"
         transform="matrix(1,0,0,1,2970,2100)"
         font-size="34.3958"
         font-style="normal"
         font-weight="400"
         id="g130"
         style="fill:#00ffff;stroke:#000080;stroke-width:0.10000001;stroke-dasharray:none">
        <path
           fill-rule="evenodd"
           vector-effect="non-scaling-stroke"
           d="M1636.5,185 C1636.5,193.284 1629.78,200 1621.5,200 C1613.22,200 1606.5,193.284 1606.5,185 C1606.5,176.716 1613.22,170 1621.5,170 C1629.78,170 1636.5,176.716 1636.5,185 "
           id="path128"
           style="fill:#00ffff;stroke:#000080;stroke-width:0.10000001;stroke-dasharray:none" />
      </g>
      <g
         stroke="none"
         font-family="MS Shell Dlg 2"
         fill-opacity="1"
         fill="#ffffff"
         transform="matrix(1,0,0,1,2970,2100)"
         font-size="34.3958"
         font-style="normal"
         font-weight="400"
         id="g138"
         style="fill:#00ffff;stroke:#000080;stroke-width:0.10000001;stroke-dasharray:none">
        <path
           fill-rule="evenodd"
           vector-effect="non-scaling-stroke"
           d="M1636.5,-185 C1636.5,-176.716 1629.78,-170 1621.5,-170 C1613.22,-170 1606.5,-176.716 1606.5,-185 C1606.5,-193.284 1613.22,-200 1621.5,-200 C1629.78,-200 1636.5,-193.284 1636.5,-185 "
           id="path136"
           style="fill:#00ffff;stroke:#000080;stroke-width:0.10000001;stroke-dasharray:none" />
      </g>
      <g
         stroke="none"
         font-family="MS Shell Dlg 2"
         fill-opacity="1"
         fill="#ffffff"
         transform="matrix(1,0,0,1,2970,2100)"
         font-size="34.3958"
         font-style="normal"
         font-weight="400"
         id="g146"
         style="fill:#00ffff;stroke:#000080;stroke-width:0.10000001;stroke-dasharray:none">
        <path
           fill-rule="evenodd"
           vector-effect="non-scaling-stroke"
           d="M-1531.5,185 C-1531.5,193.284 -1538.22,200 -1546.5,200 C-1554.78,200 -1561.5,193.284 -1561.5,185 C-1561.5,176.716 -1554.78,170 -1546.5,170 C-1538.22,170 -1531.5,176.716 -1531.5,185 "
           id="path144"
           style="fill:#00ffff;stroke:#000080;stroke-width:0.10000001;stroke-dasharray:none" />
      </g>
      <g
         stroke="none"
         font-family="MS Shell Dlg 2"
         fill-opacity="1"
         fill="#ffffff"
         transform="matrix(1,0,0,1,2970,2100)"
         font-size="34.3958"
         font-style="normal"
         font-weight="400"
         id="g154"
         style="fill:#00ffff;stroke:#000080;stroke-width:0.10000001;stroke-dasharray:none">
        <path
           fill-rule="evenodd"
           vector-effect="non-scaling-stroke"
           d="M-1531.5,-185 C-1531.5,-176.716 -1538.22,-170 -1546.5,-170 C-1554.78,-170 -1561.5,-176.716 -1561.5,-185 C-1561.5,-193.284 -1554.78,-200 -1546.5,-200 C-1538.22,-200 -1531.5,-193.284 -1531.5,-185 "
           id="path152"
           style="fill:#00ffff;stroke:#000080;stroke-width:0.10000001;stroke-dasharray:none" />
      </g>
      <g
         stroke="none"
         font-family="MS Shell Dlg 2"
         fill-opacity="1"
         fill="#ffffff"
         transform="matrix(1,0,0,1,2970,2100)"
         font-size="34.3958"
         font-style="normal"
         font-weight="400"
         id="g162"
         style="fill:#00ffff;stroke:#000080;stroke-width:0.10000001;stroke-dasharray:none">
        <path
           fill-rule="evenodd"
           vector-effect="non-scaling-stroke"
           d="M1261.5,185 C1261.5,193.284 1254.78,200 1246.5,200 C1238.22,200 1231.5,193.284 1231.5,185 C1231.5,176.716 1238.22,170 1246.5,170 C1254.78,170 1261.5,176.716 1261.5,185 "
           id="path160"
           style="fill:#00ffff;stroke:#000080;stroke-width:0.10000001;stroke-dasharray:none" />
      </g>
      <g
         stroke="none"
         font-family="MS Shell Dlg 2"
         fill-opacity="1"
         fill="#ffffff"
         transform="matrix(1,0,0,1,2970,2100)"
         font-size="34.3958"
         font-style="normal"
         font-weight="400"
         id="g170"
         style="fill:#00ffff;stroke:#000080;stroke-width:0.10000001;stroke-dasharray:none">
        <path
           fill-rule="evenodd"
           vector-effect="non-scaling-stroke"
           d="M1261.5,-185 C1261.5,-176.716 1254.78,-170 1246.5,-170 C1238.22,-170 1231.5,-176.716 1231.5,-185 C1231.5,-193.284 1238.22,-200 1246.5,-200 C1254.78,-200 1261.5,-193.284 1261.5,-185 "
           id="path168"
           style="fill:#00ffff;stroke:#000080;stroke-width:0.10000001;stroke-dasharray:none" />
      </g>
    </g>
  </g>
  <metadata
     id="metadata2234">
    <rdf:RDF>
      <cc:Work
         rdf:about="">
        <dc:title>FreeCAD SVG Export</dc:title>
      </cc:Work>
    </rdf:RDF>
  </metadata>
</svg>
